<svg version="1.1" viewBox="0.0 0.0 377.9527559055118 226.77165354330708" fill="none" stroke="none" stroke-linecap="square" stroke-miterlimit="10" xmlns:xlink="http://www.w3.org/1999/xlink" xmlns="http://www.w3.org/2000/svg"><clipPath id="g34a5aad216b_0_14.0"><path d="m0 0l377.95276 0l0 226.77165l-377.95276 0l0 -226.77165z" clip-rule="nonzero"/></clipPath><g clip-path="url(#g34a5aad216b_0_14.0)"><path fill="#ffffff" d="m0 0l377.95276 0l0 226.77165l-377.95276 0z" fill-rule="evenodd"/><g filter="url(#shadowFilter-g34a5aad216b_0_14.1)"><use xlink:href="#g34a5aad216b_0_14.1" transform="matrix(1.0 0.0 0.0 1.0 0.0 2.0)"/></g><defs><filter id="shadowFilter-g34a5aad216b_0_14.1" filterUnits="userSpaceOnUse"><feGaussianBlur in="SourceAlpha" stdDeviation="2.0" result="blur"/><feComponentTransfer in="blur" color-interpolation-filters="sRGB"><feFuncR type="linear" slope="0" intercept="0.0"/><feFuncG type="linear" slope="0" intercept="0.0"/><feFuncB type="linear" slope="0" intercept="0.0"/><feFuncA type="linear" slope="0.5" intercept="0"/></feComponentTransfer></filter></defs><g id="g34a5aad216b_0_14.1"><path fill="#000000" fill-opacity="0.0" d="m64.27034 72.468506l0 0c0 -31.310635 25.382286 -56.692917 56.692917 -56.692917l0 0c15.035889 0 29.455963 5.972986 40.087936 16.60497c10.631989 10.631981 16.60498 25.052048 16.60498 40.087944l0 0c0 31.31063 -25.382294 56.692917 -56.692917 56.692917l0 0c-31.31063 0 -56.692917 -25.382286 -56.692917 -56.692917z" fill-rule="evenodd"/><path stroke="#000000" stroke-width="1.0" stroke-linejoin="round" stroke-linecap="butt" d="m64.27034 72.468506l0 0c0 -31.310635 25.382286 -56.692917 56.692917 -56.692917l0 0c15.035889 0 29.455963 5.972986 40.087936 16.60497c10.631989 10.631981 16.60498 25.052048 16.60498 40.087944l0 0c0 31.31063 -25.382294 56.692917 -56.692917 56.692917l0 0c-31.31063 0 -56.692917 -25.382286 -56.692917 -56.692917z" fill-rule="evenodd"/></g><path fill="#cc0000" d="m117.18372 72.468506l0 0c0 -2.0873795 1.6921539 -3.7795258 3.7795334 -3.7795258l0 0c1.002388 0 1.9637299 0.39819336 2.6725311 1.1069946c0.70879364 0.70880127 1.1069946 1.6701355 1.1069946 2.6725311l0 0c0 2.0873718 -1.6921539 3.7795258 -3.7795258 3.7795258l0 0c-2.0873795 0 -3.7795334 -1.6921539 -3.7795334 -3.7795258z" fill-rule="evenodd"/><path stroke="#cc0000" stroke-width="1.0" stroke-linejoin="round" stroke-linecap="butt" d="m117.18372 72.468506l0 0c0 -2.0873795 1.6921539 -3.7795258 3.7795334 -3.7795258l0 0c1.002388 0 1.9637299 0.39819336 2.6725311 1.1069946c0.70879364 0.70880127 1.1069946 1.6701355 1.1069946 2.6725311l0 0c0 2.0873718 -1.6921539 3.7795258 -3.7795258 3.7795258l0 0c-2.0873795 0 -3.7795334 -1.6921539 -3.7795334 -3.7795258z" fill-rule="evenodd"/><g filter="url(#shadowFilter-g34a5aad216b_0_14.2)"><use xlink:href="#g34a5aad216b_0_14.2" transform="matrix(1.0 0.0 0.0 1.0 0.0 2.0)"/></g><defs><filter id="shadowFilter-g34a5aad216b_0_14.2" filterUnits="userSpaceOnUse"><feGaussianBlur in="SourceAlpha" stdDeviation="2.0" result="blur"/><feComponentTransfer in="blur" color-interpolation-filters="sRGB"><feFuncR type="linear" slope="0" intercept="0.0"/><feFuncG type="linear" slope="0" intercept="0.0"/><feFuncB type="linear" slope="0" intercept="0.0"/><feFuncA type="linear" slope="0.5" intercept="0"/></feComponentTransfer></filter></defs><g id="g34a5aad216b_0_14.2"><path fill="#000000" fill-opacity="0.0" d="m210.36482 89.49213l0 0c0 -31.31063 25.382294 -56.692913 56.692917 -56.692913l0 0c15.035889 0 29.455963 5.9729843 40.08795 16.604969c10.631989 10.631985 16.60498 25.052048 16.60498 40.087944l0 0c0 31.31063 -25.382294 56.692917 -56.692932 56.692917l0 0c-31.310623 0 -56.692917 -25.382286 -56.692917 -56.692917z" fill-rule="evenodd"/><path stroke="#000000" stroke-width="1.0" stroke-linejoin="round" stroke-linecap="butt" d="m210.36482 89.49213l0 0c0 -31.31063 25.382294 -56.692913 56.692917 -56.692913l0 0c15.035889 0 29.455963 5.9729843 40.08795 16.604969c10.631989 10.631985 16.60498 25.052048 16.60498 40.087944l0 0c0 31.31063 -25.382294 56.692917 -56.692932 56.692917l0 0c-31.310623 0 -56.692917 -25.382286 -56.692917 -56.692917z" fill-rule="evenodd"/></g><path fill="#cc0000" d="m263.27823 89.49213l0 0c0 -2.0873795 1.6921387 -3.7795258 3.7795105 -3.7795258l0 0c1.0024109 0 1.9637451 0.39819336 2.6725464 1.1069946c0.70877075 0.70880127 1.1069946 1.6701355 1.1069946 2.6725311l0 0c0 2.0873718 -1.6921692 3.7795258 -3.779541 3.7795258l0 0c-2.0873718 0 -3.7795105 -1.6921539 -3.7795105 -3.7795258z" fill-rule="evenodd"/><path stroke="#cc0000" stroke-width="1.0" stroke-linejoin="round" stroke-linecap="butt" d="m263.27823 89.49213l0 0c0 -2.0873795 1.6921387 -3.7795258 3.7795105 -3.7795258l0 0c1.0024109 0 1.9637451 0.39819336 2.6725464 1.1069946c0.70877075 0.70880127 1.1069946 1.6701355 1.1069946 2.6725311l0 0c0 2.0873718 -1.6921692 3.7795258 -3.779541 3.7795258l0 0c-2.0873718 0 -3.7795105 -1.6921539 -3.7795105 -3.7795258z" fill-rule="evenodd"/><path fill="#000000" d="m104.02887 54.964565l0 0c0 -2.0873756 1.6921539 -3.7795258 3.7795258 -3.7795258l0 0c1.0023956 0 1.9637375 0.39819717 2.6725311 1.1069984c0.70880127 0.70879745 1.1070023 1.6701355 1.1070023 2.6725273l0 0c0 2.0873756 -1.6921539 3.7795296 -3.7795334 3.7795296l0 0c-2.0873718 0 -3.7795258 -1.6921539 -3.7795258 -3.7795296z" fill-rule="evenodd"/><path stroke="#000000" stroke-width="1.0" stroke-linejoin="round" stroke-linecap="butt" d="m104.02887 54.964565l0 0c0 -2.0873756 1.6921539 -3.7795258 3.7795258 -3.7795258l0 0c1.0023956 0 1.9637375 0.39819717 2.6725311 1.1069984c0.70880127 0.70879745 1.1070023 1.6701355 1.1070023 2.6725273l0 0c0 2.0873756 -1.6921539 3.7795296 -3.7795334 3.7795296l0 0c-2.0873718 0 -3.7795258 -1.6921539 -3.7795258 -3.7795296z" fill-rule="evenodd"/><path fill="#000000" d="m111.58793 83.24016l0 0c0 -2.0873795 1.6921463 -3.7795258 3.7795258 -3.7795258l0 0c1.0023956 0 1.9637299 0.39819336 2.6725311 1.1069946c0.70879364 0.70880127 1.1069946 1.6701355 1.1069946 2.6725311l0 0c0 2.0873718 -1.6921539 3.7795258 -3.7795258 3.7795258l0 0c-2.0873795 0 -3.7795258 -1.6921539 -3.7795258 -3.7795258z" fill-rule="evenodd"/><path stroke="#000000" stroke-width="1.0" stroke-linejoin="round" stroke-linecap="butt" d="m111.58793 83.24016l0 0c0 -2.0873795 1.6921463 -3.7795258 3.7795258 -3.7795258l0 0c1.0023956 0 1.9637299 0.39819336 2.6725311 1.1069946c0.70879364 0.70880127 1.1069946 1.6701355 1.1069946 2.6725311l0 0c0 2.0873718 -1.6921539 3.7795258 -3.7795258 3.7795258l0 0c-2.0873795 0 -3.7795258 -1.6921539 -3.7795258 -3.7795258z" fill-rule="evenodd"/><path fill="#000000" d="m124.74278 62.52362l0 0c0 -2.0873756 1.6921539 -3.7795258 3.7795258 -3.7795258l0 0c1.0023956 0 1.9637299 0.39819717 2.6725311 1.1069984c0.70880127 0.70879745 1.1069946 1.6701355 1.1069946 2.6725273l0 0c0 2.0873795 -1.6921539 3.7795258 -3.7795258 3.7795258l0 0c-2.0873718 0 -3.7795258 -1.6921463 -3.7795258 -3.7795258z" fill-rule="evenodd"/><path stroke="#000000" stroke-width="1.0" stroke-linejoin="round" stroke-linecap="butt" d="m124.74278 62.52362l0 0c0 -2.0873756 1.6921539 -3.7795258 3.7795258 -3.7795258l0 0c1.0023956 0 1.9637299 0.39819717 2.6725311 1.1069984c0.70880127 0.70879745 1.1069946 1.6701355 1.1069946 2.6725273l0 0c0 2.0873795 -1.6921539 3.7795258 -3.7795258 3.7795258l0 0c-2.0873718 0 -3.7795258 -1.6921463 -3.7795258 -3.7795258z" fill-rule="evenodd"/><path fill="#4285f4" d="m186.26772 103.33202l0 0c0 -2.0873795 1.6921539 -3.7795334 3.7795258 -3.7795334l0 0c1.0023956 0 1.9637299 0.398201 2.6725311 1.1070023c0.70880127 0.70880127 1.1069946 1.6701355 1.1069946 2.6725311l0 0c0 2.0873718 -1.6921539 3.7795258 -3.7795258 3.7795258l0 0c-2.0873718 0 -3.7795258 -1.6921539 -3.7795258 -3.7795258z" fill-rule="evenodd"/><path stroke="#4a86e8" stroke-width="1.0" stroke-linejoin="round" stroke-linecap="butt" d="m186.26772 103.33202l0 0c0 -2.0873795 1.6921539 -3.7795334 3.7795258 -3.7795334l0 0c1.0023956 0 1.9637299 0.398201 2.6725311 1.1070023c0.70880127 0.70880127 1.1069946 1.6701355 1.1069946 2.6725311l0 0c0 2.0873718 -1.6921539 3.7795258 -3.7795258 3.7795258l0 0c-2.0873718 0 -3.7795258 -1.6921539 -3.7795258 -3.7795258z" fill-rule="evenodd"/><path fill="#000000" d="m129.2336 80.02756l0 0c0 -2.0873718 1.6921539 -3.7795258 3.7795258 -3.7795258l0 0c1.0023956 0 1.9637299 0.398201 2.6725311 1.1069946c0.70880127 0.70880127 1.1069946 1.6701431 1.1069946 2.6725311l0 0c0 2.0873795 -1.6921539 3.7795258 -3.7795258 3.7795258l0 0c-2.0873718 0 -3.7795258 -1.6921463 -3.7795258 -3.7795258z" fill-rule="evenodd"/><path stroke="#000000" stroke-width="1.0" stroke-linejoin="round" stroke-linecap="butt" d="m129.2336 80.02756l0 0c0 -2.0873718 1.6921539 -3.7795258 3.7795258 -3.7795258l0 0c1.0023956 0 1.9637299 0.398201 2.6725311 1.1069946c0.70880127 0.70880127 1.1069946 1.6701431 1.1069946 2.6725311l0 0c0 2.0873795 -1.6921539 3.7795258 -3.7795258 3.7795258l0 0c-2.0873718 0 -3.7795258 -1.6921463 -3.7795258 -3.7795258z" fill-rule="evenodd"/><path fill="#000000" d="m83.5958 68.6601l0 0c0 -2.0873718 1.6921539 -3.7795258 3.7795258 -3.7795258l0 0c1.0023956 0 1.9637299 0.398201 2.6725311 1.1069946c0.70879364 0.70880127 1.1069946 1.6701431 1.1069946 2.6725311l0 0c0 2.0873795 -1.6921539 3.7795334 -3.7795258 3.7795334l0 0c-2.0873718 0 -3.7795258 -1.6921539 -3.7795258 -3.7795334z" fill-rule="evenodd"/><path stroke="#000000" stroke-width="1.0" stroke-linejoin="round" stroke-linecap="butt" d="m83.5958 68.6601l0 0c0 -2.0873718 1.6921539 -3.7795258 3.7795258 -3.7795258l0 0c1.0023956 0 1.9637299 0.398201 2.6725311 1.1069946c0.70879364 0.70880127 1.1069946 1.6701431 1.1069946 2.6725311l0 0c0 2.0873795 -1.6921539 3.7795334 -3.7795258 3.7795334l0 0c-2.0873718 0 -3.7795258 -1.6921539 -3.7795258 -3.7795334z" fill-rule="evenodd"/><path fill="#000000" d="m263.27823 68.6601l0 0c0 -2.0873718 1.6921387 -3.7795258 3.7795105 -3.7795258l0 0c1.0024109 0 1.9637451 0.398201 2.6725464 1.1069946c0.70877075 0.70880127 1.1069946 1.6701431 1.1069946 2.6725311l0 0c0 2.0873795 -1.6921692 3.7795334 -3.779541 3.7795334l0 0c-2.0873718 0 -3.7795105 -1.6921539 -3.7795105 -3.7795334z" fill-rule="evenodd"/><path stroke="#000000" stroke-width="1.0" stroke-linejoin="round" stroke-linecap="butt" d="m263.27823 68.6601l0 0c0 -2.0873718 1.6921387 -3.7795258 3.7795105 -3.7795258l0 0c1.0024109 0 1.9637451 0.398201 2.6725464 1.1069946c0.70877075 0.70880127 1.1069946 1.6701431 1.1069946 2.6725311l0 0c0 2.0873795 -1.6921692 3.7795334 -3.779541 3.7795334l0 0c-2.0873718 0 -3.7795105 -1.6921539 -3.7795105 -3.7795334z" fill-rule="evenodd"/><path fill="#000000" d="m219.80052 90.79921l0 0c0 -2.0873718 1.6921539 -3.7795258 3.7795258 -3.7795258l0 0c1.0023956 0 1.9637299 0.398201 2.6725311 1.1070023c0.70880127 0.70879364 1.1069946 1.6701355 1.1069946 2.6725235l0 0c0 2.0873795 -1.6921387 3.7795334 -3.7795258 3.7795334l0 0c-2.0873718 0 -3.7795258 -1.6921539 -3.7795258 -3.7795334z" fill-rule="evenodd"/><path stroke="#000000" stroke-width="1.0" stroke-linejoin="round" stroke-linecap="butt" d="m219.80052 90.79921l0 0c0 -2.0873718 1.6921539 -3.7795258 3.7795258 -3.7795258l0 0c1.0023956 0 1.9637299 0.398201 2.6725311 1.1070023c0.70880127 0.70879364 1.1069946 1.6701355 1.1069946 2.6725235l0 0c0 2.0873795 -1.6921387 3.7795334 -3.7795258 3.7795334l0 0c-2.0873718 0 -3.7795258 -1.6921539 -3.7795258 -3.7795334z" fill-rule="evenodd"/><path fill="#000000" d="m117.18372 21.859581l0 0c0 -2.0873756 1.6921539 -3.7795277 3.7795334 -3.7795277l0 0c1.002388 0 1.9637299 0.39819908 2.6725311 1.1069965c0.70879364 0.70879936 1.1069946 1.6701374 1.1069946 2.6725311l0 0c0 2.0873737 -1.6921539 3.7795258 -3.7795258 3.7795258l0 0c-2.0873795 0 -3.7795334 -1.692152 -3.7795334 -3.7795258z" fill-rule="evenodd"/><path stroke="#000000" stroke-width="1.0" stroke-linejoin="round" stroke-linecap="butt" d="m117.18372 21.859581l0 0c0 -2.0873756 1.6921539 -3.7795277 3.7795334 -3.7795277l0 0c1.002388 0 1.9637299 0.39819908 2.6725311 1.1069965c0.70879364 0.70879936 1.1069946 1.6701374 1.1069946 2.6725311l0 0c0 2.0873737 -1.6921539 3.7795258 -3.7795258 3.7795258l0 0c-2.0873795 0 -3.7795334 -1.692152 -3.7795334 -3.7795258z" fill-rule="evenodd"/><path fill="#000000" d="m80.78215 37.972443l0 0c0 -2.0873756 1.6921539 -3.7795296 3.7795258 -3.7795296l0 0c1.0023956 0 1.9637375 0.398201 2.6725311 1.1069984c0.70880127 0.70879745 1.1070023 1.6701355 1.1070023 2.6725311l0 0c0 2.0873756 -1.6921539 3.7795258 -3.7795334 3.7795258l0 0c-2.0873718 0 -3.7795258 -1.6921501 -3.7795258 -3.7795258z" fill-rule="evenodd"/><path stroke="#000000" stroke-width="1.0" stroke-linejoin="round" stroke-linecap="butt" d="m80.78215 37.972443l0 0c0 -2.0873756 1.6921539 -3.7795296 3.7795258 -3.7795296l0 0c1.0023956 0 1.9637375 0.398201 2.6725311 1.1069984c0.70880127 0.70879745 1.1070023 1.6701355 1.1070023 2.6725311l0 0c0 2.0873756 -1.6921539 3.7795258 -3.7795334 3.7795258l0 0c-2.0873718 0 -3.7795258 -1.6921501 -3.7795258 -3.7795258z" fill-rule="evenodd"/><path fill="#000000" d="m102.83202 77.326775l0 0c0 -2.0873795 1.6921463 -3.7795334 3.7795258 -3.7795334l0 0c1.0023956 0 1.9637299 0.398201 2.6725311 1.1070023c0.70879364 0.70880127 1.1069946 1.6701355 1.1069946 2.6725311l0 0c0 2.0873718 -1.6921539 3.7795258 -3.7795258 3.7795258l0 0c-2.0873795 0 -3.7795258 -1.6921539 -3.7795258 -3.7795258z" fill-rule="evenodd"/><path stroke="#000000" stroke-width="1.0" stroke-linejoin="round" stroke-linecap="butt" d="m102.83202 77.326775l0 0c0 -2.0873795 1.6921463 -3.7795334 3.7795258 -3.7795334l0 0c1.0023956 0 1.9637299 0.398201 2.6725311 1.1070023c0.70879364 0.70880127 1.1069946 1.6701355 1.1069946 2.6725311l0 0c0 2.0873718 -1.6921539 3.7795258 -3.7795258 3.7795258l0 0c-2.0873795 0 -3.7795258 -1.6921539 -3.7795258 -3.7795258z" fill-rule="evenodd"/><path fill="#000000" d="m304.48557 92.47638l0 0c0 -2.0873795 1.6921387 -3.7795258 3.779541 -3.7795258l0 0c1.0023804 0 1.9637146 0.39819336 2.6725159 1.1069946c0.70880127 0.70880127 1.1069946 1.6701355 1.1069946 2.6725311l0 0c0 2.0873718 -1.6921387 3.7795258 -3.7795105 3.7795258l0 0c-2.0874023 0 -3.779541 -1.6921539 -3.779541 -3.7795258z" fill-rule="evenodd"/><path stroke="#000000" stroke-width="1.0" stroke-linejoin="round" stroke-linecap="butt" d="m304.48557 92.47638l0 0c0 -2.0873795 1.6921387 -3.7795258 3.779541 -3.7795258l0 0c1.0023804 0 1.9637146 0.39819336 2.6725159 1.1069946c0.70880127 0.70880127 1.1069946 1.6701355 1.1069946 2.6725311l0 0c0 2.0873718 -1.6921387 3.7795258 -3.7795105 3.7795258l0 0c-2.0874023 0 -3.779541 -1.6921539 -3.779541 -3.7795258z" fill-rule="evenodd"/><path fill="#000000" d="m283.00262 116.261154l0 0c0 -2.0873718 1.6921387 -3.7795258 3.779541 -3.7795258l0 0c1.0023804 0 1.9637146 0.398201 2.6725159 1.1069946c0.70880127 0.70880127 1.1069946 1.6701355 1.1069946 2.6725311l0 0c0 2.0873795 -1.6921387 3.7795258 -3.7795105 3.7795258l0 0c-2.0874023 0 -3.779541 -1.6921463 -3.779541 -3.7795258z" fill-rule="evenodd"/><path stroke="#000000" stroke-width="1.0" stroke-linejoin="round" stroke-linecap="butt" d="m283.00262 116.261154l0 0c0 -2.0873718 1.6921387 -3.7795258 3.779541 -3.7795258l0 0c1.0023804 0 1.9637146 0.398201 2.6725159 1.1069946c0.70880127 0.70880127 1.1069946 1.6701355 1.1069946 2.6725311l0 0c0 2.0873795 -1.6921387 3.7795258 -3.7795105 3.7795258l0 0c-2.0874023 0 -3.779541 -1.6921463 -3.779541 -3.7795258z" fill-rule="evenodd"/><path fill="#000000" fill-opacity="0.0" d="m84.88189 98.20604l74.77166 0l0 42.015747l-74.77166 0z" fill-rule="evenodd"/><path fill="#000000" d="m124.03298 125.12604l-1.640625 0l0 -10.453125q-0.59375 0.5625 -1.5625 1.140625q-0.953125 0.5625 -1.71875 0.84375l0 -1.59375q1.375 -0.640625 2.40625 -1.5625q1.03125 -0.921875 1.453125 -1.78125l1.0625 0l0 13.40625z" fill-rule="nonzero"/><path fill="#000000" fill-opacity="0.0" d="m229.67192 114.97507l74.77165 0l0 42.015747l-74.77165 0z" fill-rule="evenodd"/><path fill="#000000" d="m271.2605 140.31694l0 1.578125l-8.828125 0q-0.015625 -0.59375 0.1875 -1.140625q0.34375 -0.90625 1.078125 -1.78125q0.75 -0.875 2.15625 -2.015625q2.171875 -1.78125 2.9375 -2.828125q0.765625 -1.046875 0.765625 -1.96875q0 -0.984375 -0.703125 -1.640625q-0.6875 -0.671875 -1.8125 -0.671875q-1.1875 0 -1.90625 0.71875q-0.703125 0.703125 -0.703125 1.953125l-1.6875 -0.171875q0.171875 -1.890625 1.296875 -2.875q1.140625 -0.984375 3.03125 -0.984375q1.921875 0 3.046875 1.0625q1.125 1.0625 1.125 2.640625q0 0.796875 -0.328125 1.578125q-0.328125 0.78125 -1.09375 1.640625q-0.75 0.84375 -2.53125 2.34375q-1.46875 1.234375 -1.890625 1.6875q-0.421875 0.4375 -0.6875 0.875l6.546875 0z" fill-rule="nonzero"/><path fill="#000000" fill-opacity="0.0" d="m59.31496 158.45013l143.52756 0l0 33.448822l-143.52756 0z" fill-rule="evenodd"/><path fill="#000000" d="m77.721214 176.91891l1.515625 0.375q-0.46875 1.875 -1.71875 2.859375q-1.234375 0.984375 -3.015625 0.984375q-1.859375 0 -3.015625 -0.75q-1.15625 -0.765625 -1.765625 -2.1875q-0.609375 -1.4375 -0.609375 -3.078125q0 -1.796875 0.6875 -3.125q0.6875 -1.328125 1.9375 -2.015625q1.265625 -0.703125 2.78125 -0.703125q1.71875 0 2.890625 0.875q1.171875 0.875 1.640625 2.46875l-1.5 0.34375q-0.390625 -1.25 -1.15625 -1.8125q-0.75 -0.578125 -1.90625 -0.578125q-1.3125 0 -2.203125 0.640625q-0.890625 0.625 -1.25 1.703125q-0.359375 1.0625 -0.359375 2.1875q0 1.46875 0.421875 2.5625q0.4375 1.078125 1.328125 1.625q0.90625 0.53125 1.953125 0.53125q1.265625 0 2.140625 -0.734375q0.890625 -0.734375 1.203125 -2.171875zm8.8828125 1.34375l1.453125 0.171875q-0.34375 1.28125 -1.28125 1.984375q-0.921875 0.703125 -2.359375 0.703125q-1.828125 0 -2.890625 -1.125q-1.0625 -1.125 -1.0625 -3.140625q0 -2.09375 1.078125 -3.25q1.078125 -1.15625 2.796875 -1.15625q1.65625 0 2.703125 1.140625q1.0625 1.125 1.0625 3.171875q0 0.125 0 0.375l-6.1875 0q0.078125 1.375 0.765625 2.109375q0.703125 0.71875 1.734375 0.71875q0.78125 0 1.328125 -0.40625q0.546875 -0.40625 0.859375 -1.296875zm-4.609375 -2.28125l4.625 0q-0.09375 -1.046875 -0.53125 -1.5625q-0.671875 -0.8125 -1.734375 -0.8125q-0.96875 0 -1.640625 0.65625q-0.65625 0.640625 -0.71875 1.71875zm7.8359375 4.953125l0 -8.296875l1.265625 0l0 1.171875q0.90625 -1.359375 2.640625 -1.359375q0.75 0 1.375 0.265625q0.625 0.265625 0.9375 0.703125q0.3125 0.4375 0.4375 1.046875q0.078125 0.390625 0.078125 1.359375l0 5.109375l-1.40625 0l0 -5.046875q0 -0.859375 -0.171875 -1.28125q-0.15625 -0.4375 -0.578125 -0.6875q-0.40625 -0.25 -0.96875 -0.25q-0.90625 0 -1.5625 0.578125q-0.640625 0.5625 -0.640625 2.15625l0 4.53125l-1.40625 0zm11.9609375 -1.265625l0.203125 1.25q-0.59375 0.125 -1.0625 0.125q-0.765625 0 -1.1875 -0.234375q-0.421875 -0.25 -0.59375 -0.640625q-0.171875 -0.40625 -0.171875 -1.671875l0 -4.765625l-1.03125 0l0 -1.09375l1.03125 0l0 -2.0625l1.40625 -0.84375l0 2.90625l1.40625 0l0 1.09375l-1.40625 0l0 4.84375q0 0.609375 0.0625 0.78125q0.078125 0.171875 0.25 0.28125q0.171875 0.09375 0.484375 0.09375q0.234375 0 0.609375 -0.0625zm1.3671875 1.265625l0 -8.296875l1.265625 0l0 1.25q0.484375 -0.875 0.890625 -1.15625q0.40625 -0.28125 0.90625 -0.28125q0.703125 0 1.4375 0.453125l-0.484375 1.296875q-0.515625 -0.296875 -1.03125 -0.296875q-0.453125 0 -0.828125 0.28125q-0.359375 0.265625 -0.515625 0.765625q-0.234375 0.75 -0.234375 1.640625l0 4.34375l-1.40625 0zm4.8125 -4.15625q0 -2.296875 1.28125 -3.40625q1.078125 -0.921875 2.609375 -0.921875q1.71875 0 2.796875 1.125q1.09375 1.109375 1.09375 3.09375q0 1.59375 -0.484375 2.515625q-0.484375 0.921875 -1.40625 1.4375q-0.90625 0.5 -2.0 0.5q-1.734375 0 -2.8125 -1.109375q-1.078125 -1.125 -1.078125 -3.234375zm1.453125 0q0 1.59375 0.6875 2.390625q0.703125 0.796875 1.75 0.796875q1.046875 0 1.734375 -0.796875q0.703125 -0.796875 0.703125 -2.4375q0 -1.53125 -0.703125 -2.328125q-0.6875 -0.796875 -1.734375 -0.796875q-1.046875 0 -1.75 0.796875q-0.6875 0.78125 -0.6875 2.375zm7.9765625 -5.6875l0 -1.609375l1.40625 0l0 1.609375l-1.40625 0zm0 9.84375l0 -8.296875l1.40625 0l0 8.296875l-1.40625 0zm8.9296875 0l0 -1.046875q-0.78125 1.234375 -2.3125 1.234375q-1.0 0 -1.828125 -0.546875q-0.828125 -0.546875 -1.296875 -1.53125q-0.453125 -0.984375 -0.453125 -2.25q0 -1.25 0.40625 -2.25q0.421875 -1.015625 1.25 -1.546875q0.828125 -0.546875 1.859375 -0.546875q0.75 0 1.328125 0.3125q0.59375 0.3125 0.953125 0.828125l0 -4.109375l1.40625 0l0 11.453125l-1.3125 0zm-4.4375 -4.140625q0 1.59375 0.671875 2.390625q0.671875 0.78125 1.578125 0.78125q0.921875 0 1.5625 -0.75q0.65625 -0.765625 0.65625 -2.3125q0 -1.703125 -0.65625 -2.5q-0.65625 -0.796875 -1.625 -0.796875q-0.9375 0 -1.5625 0.765625q-0.625 0.765625 -0.625 2.421875z" fill-rule="nonzero"/><path fill="#cc0000" d="m54.199474 175.17455l0 0c0 -2.087387 1.6921539 -3.7795258 3.7795296 -3.7795258l0 0c1.0023918 0 1.9637299 0.39819336 2.6725273 1.1069946c0.70880127 0.70880127 1.1069984 1.6701355 1.1069984 2.6725311l0 0c0 2.0873718 -1.6921501 3.7795258 -3.7795258 3.7795258l0 0c-2.0873756 0 -3.7795296 -1.6921539 -3.7795296 -3.7795258z" fill-rule="evenodd"/><path stroke="#cc0000" stroke-width="1.0" stroke-linejoin="round" stroke-linecap="butt" d="m54.199474 175.17455l0 0c0 -2.087387 1.6921539 -3.7795258 3.7795296 -3.7795258l0 0c1.0023918 0 1.9637299 0.39819336 2.6725273 1.1069946c0.70880127 0.70880127 1.1069984 1.6701355 1.1069984 2.6725311l0 0c0 2.0873718 -1.6921501 3.7795258 -3.7795258 3.7795258l0 0c-2.0873756 0 -3.7795296 -1.6921539 -3.7795296 -3.7795258z" fill-rule="evenodd"/><path fill="#4285f4" d="m54.199474 194.27165l0 0c0 -2.0873718 1.6921539 -3.7795258 3.7795296 -3.7795258l0 0c1.0023918 0 1.9637299 0.39819336 2.6725273 1.1069946c0.70880127 0.70880127 1.1069984 1.6701355 1.1069984 2.6725311l0 0c0 2.0873718 -1.6921501 3.7795258 -3.7795258 3.7795258l0 0c-2.0873756 0 -3.7795296 -1.6921539 -3.7795296 -3.7795258z" fill-rule="evenodd"/><path stroke="#4a86e8" stroke-width="1.0" stroke-linejoin="round" stroke-linecap="butt" d="m54.199474 194.27165l0 0c0 -2.0873718 1.6921539 -3.7795258 3.7795296 -3.7795258l0 0c1.0023918 0 1.9637299 0.39819336 2.6725273 1.1069946c0.70880127 0.70880127 1.1069984 1.6701355 1.1069984 2.6725311l0 0c0 2.0873718 -1.6921501 3.7795258 -3.7795258 3.7795258l0 0c-2.0873756 0 -3.7795296 -1.6921539 -3.7795296 -3.7795258z" fill-rule="evenodd"/><path fill="#000000" fill-opacity="0.0" d="m59.31496 177.54724l143.52756 0l0 33.448822l-143.52756 0z" fill-rule="evenodd"/><path fill="#000000" d="m69.033714 196.34415l1.4375 -0.125q0.09375 0.859375 0.46875 1.421875q0.375 0.546875 1.15625 0.890625q0.78125 0.328125 1.75 0.328125q0.875 0 1.53125 -0.25q0.671875 -0.265625 0.984375 -0.703125q0.328125 -0.453125 0.328125 -0.984375q0 -0.546875 -0.3125 -0.9375q-0.3125 -0.40625 -1.03125 -0.6875q-0.453125 -0.171875 -2.03125 -0.546875q-1.578125 -0.390625 -2.21875 -0.71875q-0.8125 -0.4375 -1.21875 -1.0625q-0.40625 -0.640625 -0.40625 -1.4375q0 -0.859375 0.484375 -1.609375q0.5 -0.765625 1.4375 -1.15625q0.953125 -0.390625 2.109375 -0.390625q1.28125 0 2.25 0.421875q0.96875 0.40625 1.484375 1.203125q0.53125 0.796875 0.578125 1.796875l-1.453125 0.109375q-0.125 -1.078125 -0.796875 -1.625q-0.671875 -0.5625 -2.0 -0.5625q-1.375 0 -2.0 0.5q-0.625 0.5 -0.625 1.21875q0 0.609375 0.4375 1.015625q0.4375 0.390625 2.28125 0.8125q1.859375 0.421875 2.546875 0.734375q1.0 0.453125 1.46875 1.171875q0.484375 0.703125 0.484375 1.625q0 0.90625 -0.53125 1.71875q-0.515625 0.8125 -1.5 1.265625q-0.984375 0.453125 -2.203125 0.453125q-1.5625 0 -2.609375 -0.453125q-1.046875 -0.46875 -1.65625 -1.375q-0.59375 -0.90625 -0.625 -2.0625zm11.015625 -6.15625l0 -1.609375l1.40625 0l0 1.609375l-1.40625 0zm0 9.84375l0 -8.296875l1.40625 0l0 8.296875l-1.40625 0zm3.5546875 0l0 -8.296875l1.265625 0l0 1.171875q0.90625 -1.359375 2.640625 -1.359375q0.75 0 1.375 0.265625q0.625 0.265625 0.9375 0.703125q0.3125 0.4375 0.4375 1.046875q0.078125 0.390625 0.078125 1.359375l0 5.109375l-1.40625 0l0 -5.046875q0 -0.859375 -0.171875 -1.28125q-0.15625 -0.4375 -0.578125 -0.6875q-0.40625 -0.25 -0.96875 -0.25q-0.90625 0 -1.5625 0.578125q-0.640625 0.5625 -0.640625 2.15625l0 4.53125l-1.40625 0zm8.6328125 0.6875l1.375 0.203125q0.078125 0.640625 0.46875 0.921875q0.53125 0.390625 1.4375 0.390625q0.96875 0 1.5 -0.390625q0.53125 -0.390625 0.71875 -1.09375q0.109375 -0.421875 0.109375 -1.8125q-0.921875 1.09375 -2.296875 1.09375q-1.71875 0 -2.65625 -1.234375q-0.9375 -1.234375 -0.9375 -2.96875q0 -1.1875 0.421875 -2.1875q0.4375 -1.0 1.25 -1.546875q0.828125 -0.546875 1.921875 -0.546875q1.46875 0 2.421875 1.1875l0 -1.0l1.296875 0l0 7.171875q0 1.9375 -0.390625 2.75q-0.390625 0.8125 -1.25 1.28125q-0.859375 0.46875 -2.109375 0.46875q-1.484375 0 -2.40625 -0.671875q-0.90625 -0.671875 -0.875 -2.015625zm1.171875 -4.984375q0 1.625 0.640625 2.375q0.65625 0.75 1.625 0.75q0.96875 0 1.625 -0.734375q0.65625 -0.75 0.65625 -2.34375q0 -1.53125 -0.671875 -2.296875q-0.671875 -0.78125 -1.625 -0.78125q-0.9375 0 -1.59375 0.765625q-0.65625 0.765625 -0.65625 2.265625zm7.9609375 4.296875l0 -11.453125l1.40625 0l0 11.453125l-1.40625 0zm9.2578125 -2.671875l1.453125 0.171875q-0.34375 1.28125 -1.28125 1.984375q-0.921875 0.703125 -2.359375 0.703125q-1.828125 0 -2.890625 -1.125q-1.0625 -1.125 -1.0625 -3.140625q0 -2.09375 1.078125 -3.25q1.078125 -1.15625 2.796875 -1.15625q1.65625 0 2.703125 1.140625q1.0625 1.125 1.0625 3.171875q0 0.125 0 0.375l-6.1875 0q0.078125 1.375 0.765625 2.109375q0.703125 0.71875 1.734375 0.71875q0.78125 0 1.328125 -0.40625q0.546875 -0.40625 0.859375 -1.296875zm-4.609375 -2.28125l4.625 0q-0.09375 -1.046875 -0.53125 -1.5625q-0.671875 -0.8125 -1.734375 -0.8125q-0.96875 0 -1.640625 0.65625q-0.65625 0.640625 -0.71875 1.71875zm10.8984375 3.6875l0.203125 1.25q-0.59375 0.125 -1.0625 0.125q-0.765625 0 -1.1875 -0.234375q-0.421875 -0.25 -0.59375 -0.640625q-0.171875 -0.40625 -0.171875 -1.671875l0 -4.765625l-1.03125 0l0 -1.09375l1.03125 0l0 -2.0625l1.40625 -0.84375l0 2.90625l1.40625 0l0 1.09375l-1.40625 0l0 4.84375q0 0.609375 0.0625 0.78125q0.078125 0.171875 0.25 0.28125q0.171875 0.09375 0.484375 0.09375q0.234375 0 0.609375 -0.0625zm0.8515625 -2.890625q0 -2.296875 1.28125 -3.40625q1.078125 -0.921875 2.609375 -0.921875q1.71875 0 2.796875 1.125q1.09375 1.109375 1.09375 3.09375q0 1.59375 -0.484375 2.515625q-0.484375 0.921875 -1.40625 1.4375q-0.90625 0.5 -2.0 0.5q-1.734375 0 -2.8125 -1.109375q-1.078125 -1.125 -1.078125 -3.234375zm1.453125 0q0 1.59375 0.6875 2.390625q0.703125 0.796875 1.75 0.796875q1.046875 0 1.734375 -0.796875q0.703125 -0.796875 0.703125 -2.4375q0 -1.53125 -0.703125 -2.328125q-0.6875 -0.796875 -1.734375 -0.796875q-1.046875 0 -1.75 0.796875q-0.6875 0.78125 -0.6875 2.375zm7.9765625 4.15625l0 -8.296875l1.2656174 0l0 1.171875q0.90625 -1.359375 2.640625 -1.359375q0.75 0 1.375 0.265625q0.625 0.265625 0.9375 0.703125q0.3125 0.4375 0.4375 1.046875q0.078125 0.390625 0.078125 1.359375l0 5.109375l-1.40625 0l0 -5.046875q0 -0.859375 -0.171875 -1.28125q-0.15625 -0.4375 -0.578125 -0.6875q-0.40625 -0.25 -0.96875 -0.25q-0.90625 0 -1.5625 0.578125q-0.640625 0.5625 -0.640625 2.15625l0 4.53125l-1.4062424 0z" fill-rule="nonzero"/></g></svg>