<svg version="1.1" viewBox="0.0 0.0 377.9527559055118 226.77165354330708" fill="none" stroke="none" stroke-linecap="square" stroke-miterlimit="10" xmlns:xlink="http://www.w3.org/1999/xlink" xmlns="http://www.w3.org/2000/svg"><clipPath id="g34a5aad216b_0_53.0"><path d="m0 0l377.95276 0l0 226.77165l-377.95276 0l0 -226.77165z" clip-rule="nonzero"/></clipPath><g clip-path="url(#g34a5aad216b_0_53.0)"><path fill="#ffffff" d="m0 0l377.95276 0l0 226.77165l-377.95276 0z" fill-rule="evenodd"/><path fill="#cc0000" d="m26.587927 190.3819l0 0c0 -2.087387 1.692152 -3.779541 3.7795277 -3.779541l0 0c1.0023918 0 1.9637299 0.39820862 2.6725273 1.1070099c0.70880127 0.708786 1.1069984 1.6701355 1.1069984 2.6725311l0 0c0 2.0873718 -1.6921501 3.7795258 -3.7795258 3.7795258l0 0c-2.0873756 0 -3.7795277 -1.6921539 -3.7795277 -3.7795258z" fill-rule="evenodd"/><path stroke="#cc0000" stroke-width="1.0" stroke-linejoin="round" stroke-linecap="butt" d="m26.587927 190.3819l0 0c0 -2.087387 1.692152 -3.779541 3.7795277 -3.779541l0 0c1.0023918 0 1.9637299 0.39820862 2.6725273 1.1070099c0.70880127 0.708786 1.1069984 1.6701355 1.1069984 2.6725311l0 0c0 2.0873718 -1.6921501 3.7795258 -3.7795258 3.7795258l0 0c-2.0873756 0 -3.7795277 -1.6921539 -3.7795277 -3.7795258z" fill-rule="evenodd"/><path fill="#000000" d="m82.13911 170.8622l0 0c0 -2.0873718 1.6921539 -3.7795258 3.7795258 -3.7795258l0 0c1.0023956 0 1.9637299 0.39820862 2.6725311 1.1070099c0.70880127 0.708786 1.1070023 1.6701355 1.1070023 2.6725159l0 0c0 2.087387 -1.6921539 3.779541 -3.7795334 3.779541l0 0c-2.0873718 0 -3.7795258 -1.6921539 -3.7795258 -3.779541z" fill-rule="evenodd"/><path stroke="#000000" stroke-width="1.0" stroke-linejoin="round" stroke-linecap="butt" d="m82.13911 170.8622l0 0c0 -2.0873718 1.6921539 -3.7795258 3.7795258 -3.7795258l0 0c1.0023956 0 1.9637299 0.39820862 2.6725311 1.1070099c0.70880127 0.708786 1.1070023 1.6701355 1.1070023 2.6725159l0 0c0 2.087387 -1.6921539 3.779541 -3.7795334 3.779541l0 0c-2.0873718 0 -3.7795258 -1.6921539 -3.7795258 -3.779541z" fill-rule="evenodd"/><path fill="#4285f4" d="m120.29921 182.82283l0 0c0 -2.0873718 1.6921539 -3.7795258 3.7795334 -3.7795258l0 0c1.002388 0 1.9637299 0.39820862 2.6725235 1.1069946c0.70880127 0.70880127 1.1070023 1.6701355 1.1070023 2.6725311l0 0c0 2.087387 -1.6921539 3.7795258 -3.7795258 3.7795258l0 0c-2.0873795 0 -3.7795334 -1.6921387 -3.7795334 -3.7795258z" fill-rule="evenodd"/><path stroke="#4a86e8" stroke-width="1.0" stroke-linejoin="round" stroke-linecap="butt" d="m120.29921 182.82283l0 0c0 -2.0873718 1.6921539 -3.7795258 3.7795334 -3.7795258l0 0c1.002388 0 1.9637299 0.39820862 2.6725235 1.1069946c0.70880127 0.70880127 1.1070023 1.6701355 1.1070023 2.6725311l0 0c0 2.087387 -1.6921539 3.7795258 -3.7795258 3.7795258l0 0c-2.0873795 0 -3.7795334 -1.6921387 -3.7795334 -3.7795258z" fill-rule="evenodd"/><path fill="#38761d" d="m190.49081 18.080053l0 0c0 -2.0873766 1.6921539 -3.7795286 3.7795258 -3.7795286l0 0c1.0023956 0 1.9637299 0.39819908 2.6725311 1.1069984c0.70880127 0.7087984 1.1069946 1.6701365 1.1069946 2.6725302l0 0c0 2.0873737 -1.6921539 3.7795277 -3.7795258 3.7795277l0 0c-2.0873718 0 -3.7795258 -1.6921539 -3.7795258 -3.7795277z" fill-rule="evenodd"/><path stroke="#38761d" stroke-width="1.0" stroke-linejoin="round" stroke-linecap="butt" d="m190.49081 18.080053l0 0c0 -2.0873766 1.6921539 -3.7795286 3.7795258 -3.7795286l0 0c1.0023956 0 1.9637299 0.39819908 2.6725311 1.1069984c0.70880127 0.7087984 1.1069946 1.6701365 1.1069946 2.6725302l0 0c0 2.0873737 -1.6921539 3.7795277 -3.7795258 3.7795277l0 0c-2.0873718 0 -3.7795258 -1.6921539 -3.7795258 -3.7795277z" fill-rule="evenodd"/><path fill="#000000" d="m304.23096 33.198162l0 0c0 -2.0873756 1.6921692 -3.7795277 3.779541 -3.7795277l0 0c1.0023804 0 1.9637451 0.39819908 2.6725159 1.1069984c0.70880127 0.70879936 1.1070251 1.6701374 1.1070251 2.6725292l0 0c0 2.0873756 -1.6921692 3.7795296 -3.779541 3.7795296l0 0c-2.0873718 0 -3.779541 -1.6921539 -3.779541 -3.7795296z" fill-rule="evenodd"/><path stroke="#000000" stroke-width="1.0" stroke-linejoin="round" stroke-linecap="butt" d="m304.23096 33.198162l0 0c0 -2.0873756 1.6921692 -3.7795277 3.779541 -3.7795277l0 0c1.0023804 0 1.9637451 0.39819908 2.6725159 1.1069984c0.70880127 0.70879936 1.1070251 1.6701374 1.1070251 2.6725292l0 0c0 2.0873756 -1.6921692 3.7795296 -3.779541 3.7795296l0 0c-2.0873718 0 -3.779541 -1.6921539 -3.779541 -3.7795296z" fill-rule="evenodd"/><path fill="#000000" d="m74.580055 195.71785l0 0c0 -2.0873718 1.6921463 -3.7795258 3.7795258 -3.7795258l0 0c1.0023956 0 1.9637299 0.39819336 2.6725311 1.1069946c0.70879364 0.70880127 1.1069946 1.6701355 1.1069946 2.6725311l0 0c0 2.0873718 -1.6921539 3.7795258 -3.7795258 3.7795258l0 0c-2.0873795 0 -3.7795258 -1.6921539 -3.7795258 -3.7795258z" fill-rule="evenodd"/><path stroke="#000000" stroke-width="1.0" stroke-linejoin="round" stroke-linecap="butt" d="m74.580055 195.71785l0 0c0 -2.0873718 1.6921463 -3.7795258 3.7795258 -3.7795258l0 0c1.0023956 0 1.9637299 0.39819336 2.6725311 1.1069946c0.70879364 0.70880127 1.1069946 1.6701355 1.1069946 2.6725311l0 0c0 2.0873718 -1.6921539 3.7795258 -3.7795258 3.7795258l0 0c-2.0873795 0 -3.7795258 -1.6921539 -3.7795258 -3.7795258z" fill-rule="evenodd"/><path fill="#000000" d="m47.614174 153.78609l0 0c0 -2.0873718 1.6921501 -3.7795258 3.7795258 -3.7795258l0 0c1.0023956 0 1.9637337 0.39819336 2.6725311 1.1069946c0.70879745 0.70880127 1.1069984 1.6701355 1.1069984 2.6725311l0 0c0 2.0873718 -1.6921539 3.7795258 -3.7795296 3.7795258l0 0c-2.0873756 0 -3.7795258 -1.6921539 -3.7795258 -3.7795258z" fill-rule="evenodd"/><path stroke="#000000" stroke-width="1.0" stroke-linejoin="round" stroke-linecap="butt" d="m47.614174 153.78609l0 0c0 -2.0873718 1.6921501 -3.7795258 3.7795258 -3.7795258l0 0c1.0023956 0 1.9637337 0.39819336 2.6725311 1.1069946c0.70879745 0.70880127 1.1069984 1.6701355 1.1069984 2.6725311l0 0c0 2.0873718 -1.6921539 3.7795258 -3.7795296 3.7795258l0 0c-2.0873756 0 -3.7795258 -1.6921539 -3.7795258 -3.7795258z" fill-rule="evenodd"/><path fill="#000000" d="m67.020996 153.78609l0 0c0 -2.0873718 1.6921539 -3.7795258 3.7795258 -3.7795258l0 0c1.0023956 0 1.9637375 0.39819336 2.6725311 1.1069946c0.70880127 0.70880127 1.1070023 1.6701355 1.1070023 2.6725311l0 0c0 2.0873718 -1.6921539 3.7795258 -3.7795334 3.7795258l0 0c-2.0873718 0 -3.7795258 -1.6921539 -3.7795258 -3.7795258z" fill-rule="evenodd"/><path stroke="#000000" stroke-width="1.0" stroke-linejoin="round" stroke-linecap="butt" d="m67.020996 153.78609l0 0c0 -2.0873718 1.6921539 -3.7795258 3.7795258 -3.7795258l0 0c1.0023956 0 1.9637375 0.39819336 2.6725311 1.1069946c0.70880127 0.70880127 1.1070023 1.6701355 1.1070023 2.6725311l0 0c0 2.0873718 -1.6921539 3.7795258 -3.7795334 3.7795258l0 0c-2.0873718 0 -3.7795258 -1.6921539 -3.7795258 -3.7795258z" fill-rule="evenodd"/><path fill="#000000" d="m300.9449 64.33727l0 0c0 -2.0873795 1.6921387 -3.7795296 3.7795105 -3.7795296l0 0c1.0024109 0 1.9637451 0.39819717 2.6725464 1.1069984c0.70880127 0.70879745 1.1069946 1.6701355 1.1069946 2.6725311l0 0c0 2.0873718 -1.6921387 3.7795258 -3.779541 3.7795258l0 0c-2.0873718 0 -3.7795105 -1.6921539 -3.7795105 -3.7795258z" fill-rule="evenodd"/><path stroke="#000000" stroke-width="1.0" stroke-linejoin="round" stroke-linecap="butt" d="m300.9449 64.33727l0 0c0 -2.0873795 1.6921387 -3.7795296 3.7795105 -3.7795296l0 0c1.0024109 0 1.9637451 0.39819717 2.6725464 1.1069984c0.70880127 0.70879745 1.1069946 1.6701355 1.1069946 2.6725311l0 0c0 2.0873718 -1.6921387 3.7795258 -3.779541 3.7795258l0 0c-2.0873718 0 -3.7795105 -1.6921539 -3.7795105 -3.7795258z" fill-rule="evenodd"/><path fill="#cc0000" d="m328.6404 40.08005l0 0c0 -2.0873756 1.6921692 -3.7795258 3.779541 -3.7795258l0 0c1.0023804 0 1.9637146 0.39819717 2.6725159 1.1069984c0.70880127 0.70879745 1.1069946 1.6701355 1.1069946 2.6725273l0 0c0 2.0873756 -1.6921387 3.7795296 -3.7795105 3.7795296l0 0c-2.0873718 0 -3.779541 -1.6921539 -3.779541 -3.7795296z" fill-rule="evenodd"/><path stroke="#cc0000" stroke-width="1.0" stroke-linejoin="round" stroke-linecap="butt" d="m328.6404 40.08005l0 0c0 -2.0873756 1.6921692 -3.7795258 3.779541 -3.7795258l0 0c1.0023804 0 1.9637146 0.39819717 2.6725159 1.1069984c0.70880127 0.70879745 1.1069946 1.6701355 1.1069946 2.6725273l0 0c0 2.0873756 -1.6921387 3.7795296 -3.7795105 3.7795296l0 0c-2.0873718 0 -3.779541 -1.6921539 -3.779541 -3.7795296z" fill-rule="evenodd"/><path fill="#000000" fill-opacity="0.0" d="m30.509186 172.60367l29.102364 0l0 35.559067l-29.102364 0z" fill-rule="evenodd"/><path fill="#cc0000" d="m46.32288 194.40367l-1.171875 0l0 -7.46875q-0.421875 0.40625 -1.109375 0.8125q-0.6875 0.40625 -1.234375 0.609375l0 -1.140625q0.984375 -0.453125 1.71875 -1.109375q0.734375 -0.671875 1.03125 -1.28125l0.765625 0l0 9.578125z" fill-rule="nonzero"/><path fill="#000000" fill-opacity="0.0" d="m332.3386 22.301838l29.102356 0l0 35.559055l-29.102356 0z" fill-rule="evenodd"/><path fill="#cc0000" d="m348.15228 44.101837l-1.171875 0l0 -7.46875q-0.421875 0.40625 -1.109375 0.8125q-0.6875 0.40625 -1.234375 0.609375l0 -1.140625q0.984375 -0.453125 1.71875 -1.109375q0.734375 -0.671875 1.03125 -1.28125l0.765625 0l0 9.578125z" fill-rule="nonzero"/><path fill="#000000" fill-opacity="0.0" d="m193.99738 0.30183727l29.102356 0l0 35.559055l-29.102356 0z" fill-rule="evenodd"/><path fill="#38761d" d="m211.54544 20.976837l0 1.125l-6.296875 0q-0.015625 -0.421875 0.140625 -0.8125q0.234375 -0.640625 0.765625 -1.265625q0.53125 -0.625 1.53125 -1.453125q1.5625 -1.265625 2.109375 -2.015625q0.546875 -0.75000095 0.546875 -1.406251q0 -0.703125 -0.5 -1.171875q-0.5 -0.484375 -1.296875 -0.484375q-0.859375 0 -1.375 0.515625q-0.5 0.5 -0.5 1.390625l-1.203125 -0.109375q0.125 -1.359375 0.921875 -2.0625q0.8125 -0.703125 2.171875 -0.703125q1.375 0 2.171875 0.765625q0.8125 0.75 0.8125 1.875q0 0.578125 -0.234375 1.140626q-0.234375 0.546875 -0.78125 1.15625q-0.546875 0.609375 -1.8125 1.671875q-1.046875 0.890625 -1.359375 1.21875q-0.296875 0.3125 -0.484375 0.625l4.671875 0z" fill-rule="nonzero"/><path fill="#000000" fill-opacity="0.0" d="m124.05774 165.04462l29.102371 0l0 35.55905l-29.102371 0z" fill-rule="evenodd"/><path fill="#1155cc" d="m135.46518 184.329l1.171875 -0.15625q0.203125 1.0 0.6875 1.4375q0.484375 0.4375 1.171875 0.4375q0.828125 0 1.390625 -0.578125q0.578125 -0.578125 0.578125 -1.421875q0 -0.796875 -0.53125 -1.3125q-0.515625 -0.53125 -1.328125 -0.53125q-0.34375 0 -0.828125 0.125l0.125 -1.03125q0.125 0.015625 0.1875 0.015625q0.75 0 1.34375 -0.390625q0.609375 -0.390625 0.609375 -1.203125q0 -0.640625 -0.4375 -1.0625q-0.4375 -0.421875 -1.125 -0.421875q-0.6875 0 -1.140625 0.4375q-0.453125 0.421875 -0.59375 1.28125l-1.171875 -0.21875q0.21875 -1.171875 0.984375 -1.8125q0.765625 -0.65625 1.890625 -0.65625q0.78125 0 1.4375 0.34375q0.65625 0.328125 1.0 0.90625q0.359375 0.578125 0.359375 1.234375q0 0.609375 -0.34375 1.125q-0.328125 0.5 -0.96875 0.796875q0.84375 0.203125 1.3125 0.828125q0.46875 0.609375 0.46875 1.53125q0 1.25 -0.921875 2.125q-0.90625 0.859375 -2.296875 0.859375q-1.25 0 -2.09375 -0.75q-0.828125 -0.75 -0.9375 -1.9375z" fill-rule="nonzero"/><path fill="#000000" d="m63.614174 169.78609l0 0c0 -2.0873718 1.6921539 -3.7795258 3.7795258 -3.7795258l0 0c1.0023956 0 1.9637299 0.39819336 2.6725311 1.1069946c0.70880127 0.70880127 1.1069946 1.6701355 1.1069946 2.6725311l0 0c0 2.0873718 -1.6921463 3.7795258 -3.7795258 3.7795258l0 0c-2.0873718 0 -3.7795258 -1.6921539 -3.7795258 -3.7795258z" fill-rule="evenodd"/><path stroke="#000000" stroke-width="1.0" stroke-linejoin="round" stroke-linecap="butt" d="m63.614174 169.78609l0 0c0 -2.0873718 1.6921539 -3.7795258 3.7795258 -3.7795258l0 0c1.0023956 0 1.9637299 0.39819336 2.6725311 1.1069946c0.70880127 0.70880127 1.1069946 1.6701355 1.1069946 2.6725311l0 0c0 2.0873718 -1.6921463 3.7795258 -3.7795258 3.7795258l0 0c-2.0873718 0 -3.7795258 -1.6921539 -3.7795258 -3.7795258z" fill-rule="evenodd"/><path fill="#000000" d="m98.13911 186.8622l0 0c0 -2.0873718 1.6921539 -3.7795258 3.7795258 -3.7795258l0 0c1.0023956 0 1.9637299 0.39820862 2.6725311 1.1070099c0.70880127 0.708786 1.1070023 1.6701355 1.1070023 2.6725159l0 0c0 2.087387 -1.6921539 3.779541 -3.7795334 3.779541l0 0c-2.0873718 0 -3.7795258 -1.6921539 -3.7795258 -3.779541z" fill-rule="evenodd"/><path stroke="#000000" stroke-width="1.0" stroke-linejoin="round" stroke-linecap="butt" d="m98.13911 186.8622l0 0c0 -2.0873718 1.6921539 -3.7795258 3.7795258 -3.7795258l0 0c1.0023956 0 1.9637299 0.39820862 2.6725311 1.1070099c0.70880127 0.708786 1.1070023 1.6701355 1.1070023 2.6725159l0 0c0 2.087387 -1.6921539 3.779541 -3.7795334 3.779541l0 0c-2.0873718 0 -3.7795258 -1.6921539 -3.7795258 -3.779541z" fill-rule="evenodd"/><path fill="#000000" d="m43.401573 169.78609l0 0c0 -2.0873718 1.6921539 -3.7795258 3.7795296 -3.7795258l0 0c1.0023918 0 1.9637299 0.39819336 2.6725273 1.1069946c0.70880127 0.70880127 1.1069984 1.6701355 1.1069984 2.6725311l0 0c0 2.0873718 -1.6921501 3.7795258 -3.7795258 3.7795258l0 0c-2.0873756 0 -3.7795296 -1.6921539 -3.7795296 -3.7795258z" fill-rule="evenodd"/><path stroke="#000000" stroke-width="1.0" stroke-linejoin="round" stroke-linecap="butt" d="m43.401573 169.78609l0 0c0 -2.0873718 1.6921539 -3.7795258 3.7795296 -3.7795258l0 0c1.0023918 0 1.9637299 0.39819336 2.6725273 1.1069946c0.70880127 0.70880127 1.1069984 1.6701355 1.1069984 2.6725311l0 0c0 2.0873718 -1.6921501 3.7795258 -3.7795258 3.7795258l0 0c-2.0873756 0 -3.7795296 -1.6921539 -3.7795296 -3.7795258z" fill-rule="evenodd"/></g></svg>