<svg version="1.1" viewBox="0.0 0.0 377.9527559055118 226.77165354330708" fill="none" stroke="none" stroke-linecap="square" stroke-miterlimit="10" xmlns:xlink="http://www.w3.org/1999/xlink" xmlns="http://www.w3.org/2000/svg"><clipPath id="p.0"><path d="m0 0l377.95276 0l0 226.77165l-377.95276 0l0 -226.77165z" clip-rule="nonzero"/></clipPath><g clip-path="url(#p.0)"><path fill="#ffffff" d="m0 0l377.95276 0l0 226.77165l-377.95276 0z" fill-rule="evenodd"/><g filter="url(#shadowFilter-p.1)"><use xlink:href="#p.1" transform="matrix(1.0 0.0 0.0 1.0 0.0 2.0)"/></g><defs><filter id="shadowFilter-p.1" filterUnits="userSpaceOnUse"><feGaussianBlur in="SourceAlpha" stdDeviation="2.0" result="blur"/><feComponentTransfer in="blur" color-interpolation-filters="sRGB"><feFuncR type="linear" slope="0" intercept="0.0"/><feFuncG type="linear" slope="0" intercept="0.0"/><feFuncB type="linear" slope="0" intercept="0.0"/><feFuncA type="linear" slope="0.5" intercept="0"/></feComponentTransfer></filter></defs><g id="p.1"><path fill="#000000" fill-opacity="0.0" d="m56.17848 113.385826l0 0c0 -52.184383 42.303806 -94.48819 94.48819 -94.48819l0 0c25.059814 0 49.09326 9.954977 66.81323 27.674948c17.71997 17.71997 27.674957 41.753418 27.674957 66.81324l0 0c0 52.18438 -42.303802 94.48818 -94.48819 94.48818l0 0c-52.184387 0 -94.48819 -42.303802 -94.48819 -94.48818z" fill-rule="evenodd"/><path stroke="#595959" stroke-width="1.0" stroke-linejoin="round" stroke-linecap="butt" d="m56.17848 113.385826l0 0c0 -52.184383 42.303806 -94.48819 94.48819 -94.48819l0 0c25.059814 0 49.09326 9.954977 66.81323 27.674948c17.71997 17.71997 27.674957 41.753418 27.674957 66.81324l0 0c0 52.18438 -42.303802 94.48818 -94.48819 94.48818l0 0c-52.184387 0 -94.48819 -42.303802 -94.48819 -94.48818z" fill-rule="evenodd"/></g><g filter="url(#shadowFilter-p.2)"><use xlink:href="#p.2" transform="matrix(1.0 0.0 0.0 1.0 0.0 2.0)"/></g><defs><filter id="shadowFilter-p.2" filterUnits="userSpaceOnUse"><feGaussianBlur in="SourceAlpha" stdDeviation="2.0" result="blur"/><feComponentTransfer in="blur" color-interpolation-filters="sRGB"><feFuncR type="linear" slope="0" intercept="0.0"/><feFuncG type="linear" slope="0" intercept="0.0"/><feFuncB type="linear" slope="0" intercept="0.0"/><feFuncA type="linear" slope="0.5" intercept="0"/></feComponentTransfer></filter></defs><g id="p.2"><path fill="#000000" fill-opacity="0.0" d="m130.3727 113.385826l0 0c0 -52.184383 42.303818 -94.48819 94.48819 -94.48819l0 0c25.05983 0 49.093277 9.954977 66.81325 27.674948c17.71997 17.71997 27.674957 41.753418 27.674957 66.81324l0 0c0 52.18438 -42.303802 94.48818 -94.488205 94.48818l0 0c-52.184372 0 -94.48819 -42.303802 -94.48819 -94.48818z" fill-rule="evenodd"/><path stroke="#595959" stroke-width="1.0" stroke-linejoin="round" stroke-linecap="butt" d="m130.3727 113.385826l0 0c0 -52.184383 42.303818 -94.48819 94.48819 -94.48819l0 0c25.05983 0 49.093277 9.954977 66.81325 27.674948c17.71997 17.71997 27.674957 41.753418 27.674957 66.81324l0 0c0 52.18438 -42.303802 94.48818 -94.488205 94.48818l0 0c-52.184372 0 -94.48819 -42.303802 -94.48819 -94.48818z" fill-rule="evenodd"/></g><path fill="#000000" fill-opacity="0.0" d="m149.1181 92.37795l74.77167 0l0 42.015755l-74.77167 0z" fill-rule="evenodd"/><path fill="#000000" d="m167.32452 119.29795l5.125 -13.359375l1.90625 0l5.46875 13.359375l-2.015625 0l-1.546875 -4.046875l-5.59375 0l-1.46875 4.046875l-1.875 0zm3.859375 -5.484375l4.53125 0l-1.40625 -3.703125q-0.625 -1.6875 -0.9375 -2.765625q-0.265625 1.28125 -0.71875 2.546875l-1.46875 3.921875zm11.287323 5.484375l-1.234375 0l0 -5.65625q0 -2.375 0.0625 -3.0q0.109375 -1.140625 0.421875 -1.875q0.3125 -0.75 0.984375 -1.453125q0.6875 -0.71875 1.671875 -1.15625q1.0 -0.453125 2.140625 -0.453125q1.078125 0 2.046875 0.421875q0.984375 0.421875 1.71875 1.15625q0.734375 0.734375 1.046875 1.5625q0.3125 0.8125 0.40625 2.03125q0.046875 0.484375 0.046875 2.765625l0 5.65625l-1.21875 0l0 -5.71875q0 -2.0625 -0.0625 -2.640625q-0.09375 -1.046875 -0.34375 -1.65625q-0.234375 -0.609375 -0.734375 -1.140625q-0.5 -0.546875 -1.296875 -0.890625q-0.78125 -0.34375 -1.625 -0.34375q-0.84375 0 -1.65625 0.359375q-0.8125 0.359375 -1.34375 0.96875q-0.53125 0.59375 -0.734375 1.296875q-0.203125 0.703125 -0.265625 1.65625q-0.03125 0.5 -0.03125 2.390625l0 5.71875zm12.09668 0l0 -13.359375l5.015625 0q1.53125 0 2.453125 0.40625q0.921875 0.40625 1.4375 1.25q0.53125 0.84375 0.53125 1.765625q0 0.859375 -0.46875 1.625q-0.453125 0.75 -1.390625 1.203125q1.203125 0.359375 1.859375 1.21875q0.65625 0.859375 0.65625 2.015625q0 0.9375 -0.40625 1.75q-0.390625 0.796875 -0.984375 1.234375q-0.578125 0.4375 -1.453125 0.671875q-0.875 0.21875 -2.15625 0.21875l-5.09375 0zm1.78125 -7.75l2.875 0q1.1875 0 1.6875 -0.140625q0.671875 -0.203125 1.015625 -0.671875q0.34375 -0.46875 0.34375 -1.171875q0 -0.65625 -0.328125 -1.15625q-0.3125 -0.515625 -0.90625 -0.703125q-0.59375 -0.1875 -2.03125 -0.1875l-2.65625 0l0 4.03125zm0 6.171875l3.3125 0q0.859375 0 1.203125 -0.0625q0.609375 -0.109375 1.015625 -0.359375q0.421875 -0.265625 0.6875 -0.75q0.265625 -0.484375 0.265625 -1.125q0 -0.75 -0.390625 -1.296875q-0.375 -0.546875 -1.0625 -0.765625q-0.671875 -0.234375 -1.953125 -0.234375l-3.078125 0l0 4.59375z" fill-rule="nonzero"/><path fill="#000000" fill-opacity="0.0" d="m55.564304 92.37795l74.77165 0l0 42.015755l-74.77165 0z" fill-rule="evenodd"/><path fill="#000000" d="m86.6971 119.29795l5.125 -13.359375l1.90625 0l5.46875 13.359375l-2.015625 0l-1.546875 -4.046875l-5.59375 0l-1.46875 4.046875l-1.875 0zm3.859375 -5.484375l4.53125 0l-1.40625 -3.703125q-0.625 -1.6875 -0.9375 -2.765625q-0.265625 1.28125 -0.71875 2.546875l-1.46875 3.921875z" fill-rule="nonzero"/><path fill="#000000" fill-opacity="0.0" d="m247.61679 92.37795l74.77167 0l0 42.015755l-74.77167 0z" fill-rule="evenodd"/><path fill="#000000" d="m280.1402 119.29795l0 -13.359375l5.015625 0q1.53125 0 2.453125 0.40625q0.921875 0.40625 1.4375 1.25q0.53125 0.84375 0.53125 1.765625q0 0.859375 -0.46875 1.625q-0.453125 0.75 -1.390625 1.203125q1.203125 0.359375 1.859375 1.21875q0.65625 0.859375 0.65625 2.015625q0 0.9375 -0.40625 1.75q-0.390625 0.796875 -0.984375 1.234375q-0.578125 0.4375 -1.453125 0.671875q-0.875 0.21875 -2.15625 0.21875l-5.09375 0zm1.78125 -7.75l2.875 0q1.1875 0 1.6875 -0.140625q0.671875 -0.203125 1.015625 -0.671875q0.34375 -0.46875 0.34375 -1.171875q0 -0.65625 -0.328125 -1.15625q-0.3125 -0.515625 -0.90625 -0.703125q-0.59375 -0.1875 -2.03125 -0.1875l-2.65625 0l0 4.03125zm0 6.171875l3.3125 0q0.859375 0 1.203125 -0.0625q0.609375 -0.109375 1.015625 -0.359375q0.421875 -0.265625 0.6875 -0.75q0.265625 -0.484375 0.265625 -1.125q0 -0.75 -0.390625 -1.296875q-0.375 -0.546875 -1.0625 -0.765625q-0.671875 -0.234375 -1.953125 -0.234375l-3.078125 0l0 4.59375z" fill-rule="nonzero"/></g></svg>